<?xml version="1.0" standalone="no"?>
<!DOCTYPE svg PUBLIC "-//W3C//DTD SVG 20010904//EN"
 "http://www.w3.org/TR/2001/REC-SVG-20010904/DTD/svg10.dtd">
<svg version="1.0" xmlns="http://www.w3.org/2000/svg"
 width="900.000000pt" height="900.000000pt" viewBox="0 0 900.000000 900.000000"
 preserveAspectRatio="xMidYMid meet">
<metadata>
Created by potrace 1.11, written by Peter Selinger 2001-2013
</metadata>
<g transform="translate(0.000000,900.000000) scale(0.100000,-0.100000)"
fill="#000000" stroke="none">
<path d="M4240 8984 c-1436 -100 -2686 -820 -3464 -1994 -140 -210 -184 -286
-284 -486 -247 -494 -389 -990 -454 -1584 -7 -66 -12 -244 -12 -420 0 -176 5
-354 12 -420 65 -594 207 -1090 454 -1584 100 -200 144 -276 284 -486 615
-929 1554 -1594 2633 -1864 385 -97 666 -130 1091 -130 425 0 706 33 1091 130
1473 369 2668 1475 3154 2918 544 1617 128 3399 -1075 4606 -731 734 -1651
1175 -2700 1295 -128 15 -609 27 -730 19z m674 -419 c784 -83 1510 -385 2131
-889 150 -122 470 -445 586 -591 199 -250 351 -487 482 -751 578 -1159 578
-2529 0 -3688 -131 -263 -283 -500 -482 -751 -122 -154 -450 -482 -611 -611
-620 -495 -1315 -781 -2114 -871 -191 -21 -621 -21 -812 0 -799 90 -1494 376
-2114 871 -161 129 -489 457 -611 611 -202 254 -352 489 -487 760 -522 1050
-569 2288 -130 3380 152 377 349 713 617 1050 116 146 436 469 586 591 668
541 1449 848 2304 904 159 11 482 3 655 -15z"/>
<path d="M2100 4495 l0 -3085 2285 0 2285 0 0 1848 1 1847 187 252 c229 308
304 408 477 636 74 98 135 181 135 185 0 6 -279 191 -300 200 -4 1 -67 -81
-141 -182 -74 -102 -185 -254 -246 -337 l-113 -153 0 937 0 937 -2285 0 -2285
0 0 -3085z m660 0 l0 -2615 -145 0 -145 0 0 2615 0 2615 145 0 145 0 0 -2615z
m3540 1663 l-1 -953 -189 -255 c-105 -140 -243 -327 -309 -415 -65 -88 -203
-275 -307 -415 -104 -140 -225 -304 -269 -363 -44 -60 -149 -201 -232 -314
-84 -112 -153 -210 -153 -216 1 -12 274 -192 291 -192 4 0 49 56 100 125 51
69 144 195 208 280 63 85 274 371 469 635 195 264 363 491 374 504 18 23 18
-11 18 -1338 l0 -1361 -1655 0 -1655 0 0 2615 0 2615 1655 0 1655 0 0 -952z"/>
<path d="M4805 3178 c-2 -7 -25 -101 -50 -208 -25 -107 -48 -203 -51 -213 -4
-11 64 25 193 103 109 66 199 124 201 128 1 5 -63 52 -143 105 -94 63 -147 93
-150 85z"/>
<path d="M7312 6550 c-18 -11 -47 -40 -64 -65 -18 -25 -35 -45 -40 -45 -30 0
9 -36 115 -105 67 -44 134 -88 149 -98 l27 -18 46 62 c84 114 78 137 -55 224
-54 36 -110 65 -122 65 -13 0 -38 -9 -56 -20z"/>
</g>
</svg>
